<svg id="Capa_1" data-name="Capa 1" xmlns="http://www.w3.org/2000/svg" viewBox="0 0 512 512"><path d="M429.18,364.26H418.51V324.17a9.93,9.93,0,0,0-9.92-9.92H373.67a9.93,9.93,0,0,0-9.91,9.92V364.3c-.23,0-.46,0-.69,0H329.4V324.17a9.93,9.93,0,0,0-9.91-9.92H284.57a9.92,9.92,0,0,0-9.91,9.92v40.09H254.92a39.13,39.13,0,0,0-15-10.37l-1.07-26.58a21.61,21.61,0,0,0,15-20.55V262.12a21.6,21.6,0,0,0-18.53-21.35l-1-25,36.46-39.91,30.5,40.67a23.29,23.29,0,0,0,15.21,9.09,30.42,30.42,0,0,0,53,15.22L381.79,247A32,32,0,0,0,423,285.9a5.95,5.95,0,0,0-3.82-11.27,20.16,20.16,0,1,1,12.6-25.57A5.95,5.95,0,0,0,443,245.24a32,32,0,0,0-56-9l-11.62-5.73a30.44,30.44,0,0,0-14.32-36.46,23.23,23.23,0,0,0-3.28-16.43L321,119.11a30.19,30.19,0,0,0-6-34.34L293.31,63.3a30,30,0,0,0-41.65-.65l-87.18,81.14h-28.2a52.08,52.08,0,0,0-52.17,50.09L82.2,241a21.61,21.61,0,0,0-17.26,21.14v44.64a21.63,21.63,0,0,0,13.78,20.11l-1.1,27A39.11,39.11,0,0,0,52.68,390.3v60.62a9.93,9.93,0,0,0,9.91,9.91H255a9.93,9.93,0,0,0,9.92-9.91v-5.05H401.77a5.95,5.95,0,1,0,0-11.9H264.9V390.3a38.85,38.85,0,0,0-2.66-14.14H429.18A17.87,17.87,0,0,1,447,394v22.11A17.87,17.87,0,0,1,429.18,434h-3.61a6,6,0,0,0,0,11.91h3.61a29.79,29.79,0,0,0,29.75-29.76V394a29.79,29.79,0,0,0-29.75-29.75ZM286.56,326.15H317.5v38.11H286.56Zm78.57-105.29a18.55,18.55,0,0,1-36.76,3.51,24,24,0,0,0,4.85-2.56l18.12-12.48a23.09,23.09,0,0,0,4.79-4.38,18.44,18.44,0,0,1,9,15.91ZM348.44,195l-.07.15a11.32,11.32,0,0,1-3.78,4.38L326.47,212a11.34,11.34,0,0,1-5.12,1.94h0a11.43,11.43,0,0,1-10.49-4.51L279,167l34.35-37.61L347.77,184a11.39,11.39,0,0,1,.67,11ZM136.28,155.69h45a39.83,39.83,0,0,1,18.59,4.53,5.95,5.95,0,1,0,5.5-10.55,52.31,52.31,0,0,0-23.44-5.87l77.83-72.44a18.12,18.12,0,0,1,25.16.39l21.68,21.47a18.21,18.21,0,0,1,.63,25.16l-40.41,44.24,0,0-33.12,36.26-.21-5a52.21,52.21,0,0,0-8.41-26.38,6,6,0,0,0-10,6.51,40.18,40.18,0,0,1,6.49,20.35l1.88,46.19H94.13L96,194.37A40.21,40.21,0,0,1,136.28,155.69ZM76.84,262.12a9.68,9.68,0,0,1,9.67-9.67H232.33a9.68,9.68,0,0,1,9.67,9.67v44.64a9.68,9.68,0,0,1-9.67,9.67H86.51a9.68,9.68,0,0,1-9.67-9.67ZM64.58,448.93V390.3a27.19,27.19,0,0,1,27.16-27.16h16.89a6,6,0,1,0,0-11.91c-18.51,0-17.51,0-19,.06l.93-23H227l.93,23c-1.61-.08,5.16-.06-95.5-.06a6,6,0,0,0,0,11.91h93.39A27.19,27.19,0,0,1,253,390.3v49.61h0v9ZM375.66,326.15H406.6v38.11H375.66Z" style="fill:#0075c9"/><path d="M298,406.13a19,19,0,1,0,19-19A19,19,0,0,0,298,406.13Zm26.08,0A7.09,7.09,0,1,1,317,399,7.1,7.1,0,0,1,324.1,406.13Z" style="fill:#0075c9"/><path d="M381.41,406.13a19,19,0,0,0,38,0C419.4,381,381.41,381,381.41,406.13Zm19,7.09a7.1,7.1,0,1,1,7.09-7.09A7.11,7.11,0,0,1,400.41,413.22Z" style="fill:#0075c9"/><path d="M158.79,219.46a23.86,23.86,0,1,0-23.86-23.85A23.88,23.88,0,0,0,158.79,219.46Zm0-35.81a12,12,0,1,1-12,12A12,12,0,0,1,158.79,183.65Z" style="fill:#0075c9"/><path d="M278.23,123.69c14.56-6.87,13.44-27.95-1.61-33.35-15.21-5.46-29.26,10.29-22.44,24.72A18.06,18.06,0,0,0,278.23,123.69Zm-13.52-18.43a6.17,6.17,0,1,1,8.44,7.66A6.18,6.18,0,0,1,264.71,105.26Z" style="fill:#0075c9"/><path d="M95.45,306.93h45.43a6,6,0,0,0,6-5.95V269.6a6,6,0,0,0-6-6H95.45a6,6,0,0,0-6,6V301A6,6,0,0,0,95.45,306.93Zm6-31.37h33.53V295H101.4Z" style="fill:#0075c9"/><path d="M168.85,278.89h2.43a5.95,5.95,0,1,0,0-11.9h-2.43a5.95,5.95,0,1,0,0,11.9Z" style="fill:#0075c9"/><path d="M193.31,278.89h2.43a5.95,5.95,0,1,0,0-11.9h-2.43a5.95,5.95,0,0,0,0,11.9Z" style="fill:#0075c9"/><path d="M217.77,278.89h2.43a6,6,0,1,0,0-11.9h-2.43a6,6,0,0,0,0,11.9Z" style="fill:#0075c9"/><path d="M168.85,301.89h2.43a6,6,0,0,0,0-11.91h-2.43a6,6,0,0,0,0,11.91Z" style="fill:#0075c9"/><path d="M193.31,301.89h2.43a6,6,0,0,0,0-11.91h-2.43a6,6,0,0,0,0,11.91Z" style="fill:#0075c9"/><path d="M217.77,301.89h2.43a6,6,0,1,0,0-11.91h-2.43a6,6,0,0,0,0,11.91Z" style="fill:#0075c9"/><path d="M101.57,393.72a19,19,0,1,0,19,19A19,19,0,0,0,101.57,393.72Zm0,26.09a7.09,7.09,0,1,1,7.09-7.09A7.1,7.1,0,0,1,101.57,419.81Z" style="fill:#0075c9"/><path d="M221.9,387.15h-1.43v-2a6,6,0,0,0-11.91,0v2h-1.43a6,6,0,1,0,0,11.9h1.43V426.9a6,6,0,0,0,11.91,0V399.05h1.43a6,6,0,0,0,0-11.9Z" style="fill:#0075c9"/><path d="M189.81,408.68h-1.44V385.17a5.95,5.95,0,0,0-11.9,0v23.51H175a6,6,0,0,0,0,11.91h1.44v6.31a5.95,5.95,0,0,0,11.9,0v-6.31h1.44a6,6,0,0,0,0-11.91Z" style="fill:#0075c9"/><path d="M157.72,393.72h-1.44v-8.55a5.95,5.95,0,1,0-11.9,0v8.55h-1.44a6,6,0,0,0,0,11.91h1.44V426.9a5.95,5.95,0,1,0,11.9,0V405.63h1.44a6,6,0,0,0,0-11.91Z" style="fill:#0075c9"/></svg>