<svg id="Capa_1" data-name="Capa 1" xmlns="http://www.w3.org/2000/svg" viewBox="0 0 512 512"><path d="M97.5,286.55h6.36a6.35,6.35,0,0,0,6.35-6.36h0a6.35,6.35,0,0,0-6.35-6.36h-6A19.32,19.32,0,0,1,78.44,255.3,19.06,19.06,0,0,1,97.5,235.7h19.07v12.71h12.71V235.7h76.27v12.71h-57.2a25.46,25.46,0,0,0-25.43,25.42V388.24a6.35,6.35,0,0,0,6.92,6.33,6.56,6.56,0,0,0,4.07-2l27.53-27.52a7.29,7.29,0,0,1,10.15-.26,7.12,7.12,0,0,1,.09,10.17l-21.47,21.48a6.36,6.36,0,0,0-.8,8,27.92,27.92,0,0,1,0,31.08,6.41,6.41,0,0,0-1.06,3.53v6.35h12.71v-4.51a41.24,41.24,0,0,0,3.73-8.2H332.67V420H167.41V397.23L180.67,384a19.84,19.84,0,0,0-13.26-33.85v-89h178v89A19.84,19.84,0,0,0,332.12,384l18,18a40.59,40.59,0,0,0,1.58,38.93v4.51h12.71v-6.35a6.34,6.34,0,0,0-1.07-3.53,28,28,0,0,1,0-31.08,6.36,6.36,0,0,0-.79-8l-21.31-21.31A7.27,7.27,0,0,1,341,365a7.13,7.13,0,0,1,10.17-.1h0L379,392.73a6.35,6.35,0,0,0,10.85-4.49V340l7.13,7.13a18.92,18.92,0,0,1,5.58,13.49v78.45a6.35,6.35,0,0,0,6.36,6.35h0a6.35,6.35,0,0,0,6.36-6.35V360.64A31.6,31.6,0,0,0,406,338.16l-16.12-16.11V273.83a25.45,25.45,0,0,0-25.42-25.42h-57.2V235.7h76.27v12.71h12.71V235.7H414.9a19.33,19.33,0,0,1,19.46,18.53,19.07,19.07,0,0,1-19.06,19.6h-6.36a6.36,6.36,0,0,0-6.36,6.36h0a6.36,6.36,0,0,0,6.36,6.36h5.83c17.43,0,32-13.82,32.3-31.24A31.77,31.77,0,0,0,415.3,223H396.23v-6.9A38.2,38.2,0,0,0,428,178.49v-6.35a6.36,6.36,0,0,0-6.36-6.36,38,38,0,0,0-25.42,9.74V165.24A38.19,38.19,0,0,0,428,127.65v-6.36a6.35,6.35,0,0,0-6.36-6.35,37.93,37.93,0,0,0-25.42,9.74V114.4A38.21,38.21,0,0,0,428,76.8V70.44a6.35,6.35,0,0,0-6.36-6.35,38.11,38.11,0,0,0-31.78,17.09,38.11,38.11,0,0,0-31.78-17.09,6.35,6.35,0,0,0-6.35,6.35V76.8a38.19,38.19,0,0,0,31.78,37.6v10.28a38,38,0,0,0-25.43-9.74,6.35,6.35,0,0,0-6.35,6.35v6.36a38.17,38.17,0,0,0,31.78,37.59v10.28a38.06,38.06,0,0,0-25.43-9.74,6.35,6.35,0,0,0-6.35,6.36v6.35a38.18,38.18,0,0,0,31.78,37.6V223H307.25v-6.9A38.18,38.18,0,0,0,339,178.49v-6.35a6.35,6.35,0,0,0-6.35-6.36,38,38,0,0,0-25.42,9.74V165.24A38.17,38.17,0,0,0,339,127.65v-6.36a6.35,6.35,0,0,0-6.35-6.35,37.92,37.92,0,0,0-25.42,9.74V114.4A38.19,38.19,0,0,0,339,76.8V70.44a6.35,6.35,0,0,0-6.35-6.35,38.11,38.11,0,0,0-31.78,17.09,38.11,38.11,0,0,0-31.78-17.09,6.35,6.35,0,0,0-6.36,6.35V76.8a38.21,38.21,0,0,0,31.78,37.6v10.28a37.93,37.93,0,0,0-25.42-9.74,6.35,6.35,0,0,0-6.36,6.35v6.36a38.19,38.19,0,0,0,31.78,37.59v10.28a38,38,0,0,0-25.42-9.74,6.36,6.36,0,0,0-6.36,6.36v6.35a38.2,38.2,0,0,0,31.78,37.6V223H218.26v-6.9A38.18,38.18,0,0,0,250,178.49v-6.35a6.35,6.35,0,0,0-6.35-6.36,38.06,38.06,0,0,0-25.43,9.74V165.24A38.17,38.17,0,0,0,250,127.65v-6.36a6.35,6.35,0,0,0-6.35-6.35,38,38,0,0,0-25.43,9.74V114.4A38.19,38.19,0,0,0,250,76.8V70.44a6.35,6.35,0,0,0-6.35-6.35,38.09,38.09,0,0,0-31.78,17.09,38.11,38.11,0,0,0-31.78-17.09,6.35,6.35,0,0,0-6.36,6.35V76.8a38.21,38.21,0,0,0,31.78,37.6v10.28a38,38,0,0,0-25.42-9.74,6.35,6.35,0,0,0-6.36,6.35v6.36a38.19,38.19,0,0,0,31.78,37.59v10.28a38.05,38.05,0,0,0-25.42-9.74,6.36,6.36,0,0,0-6.36,6.36v6.35a38.2,38.2,0,0,0,31.78,37.6V223H129.28v-6.9a38.2,38.2,0,0,0,31.78-37.6v-6.35a6.36,6.36,0,0,0-6.36-6.36,38.05,38.05,0,0,0-25.42,9.74V165.24a38.19,38.19,0,0,0,31.78-37.59v-6.36a6.35,6.35,0,0,0-6.36-6.35,38,38,0,0,0-25.42,9.74V114.4a38.21,38.21,0,0,0,31.78-37.6V70.44a6.35,6.35,0,0,0-6.36-6.35,38.11,38.11,0,0,0-31.78,17.09A38.09,38.09,0,0,0,91.14,64.09a6.35,6.35,0,0,0-6.35,6.35V76.8a38.19,38.19,0,0,0,31.78,37.6v10.28a38,38,0,0,0-25.43-9.74,6.35,6.35,0,0,0-6.35,6.35v6.36a38.17,38.17,0,0,0,31.78,37.59v10.28a38.06,38.06,0,0,0-25.43-9.74,6.35,6.35,0,0,0-6.35,6.36v6.35a38.18,38.18,0,0,0,31.78,37.6V223H98c-17.42,0-32,13.81-32.3,31.23A31.8,31.8,0,0,0,97.5,286.55Zm57.2,67.55c-.73.56-19.06,18.8-19.06,18.8V273.83a12.72,12.72,0,0,1,12.71-12.71h6.35Zm203.39-93h6.36a12.73,12.73,0,0,1,12.71,12.71V372.9s-18.34-18.25-19.07-18.8Zm57.19-81.82a25.46,25.46,0,0,1-19,23.81A25.47,25.47,0,0,1,415.28,179.3Zm0-50.84a25.46,25.46,0,0,1-19,23.8A25.46,25.46,0,0,1,415.28,128.46Zm0-50.85a25.47,25.47,0,0,1-19,23.81A25.46,25.46,0,0,1,415.28,77.61Zm-50.82,0a25.46,25.46,0,0,1,19,23.81A25.49,25.49,0,0,1,364.46,77.61Zm0,50.85a25.46,25.46,0,0,1,19,23.8A25.47,25.47,0,0,1,364.46,128.46Zm0,50.84a25.47,25.47,0,0,1,19,23.81A25.48,25.48,0,0,1,364.46,179.3Zm-38.16,0a25.46,25.46,0,0,1-19,23.81A25.47,25.47,0,0,1,326.3,179.3Zm0-50.84a25.46,25.46,0,0,1-19,23.8A25.46,25.46,0,0,1,326.3,128.46Zm0-50.85a25.47,25.47,0,0,1-19,23.81A25.46,25.46,0,0,1,326.3,77.61Zm-50.82,0a25.46,25.46,0,0,1,19,23.81A25.47,25.47,0,0,1,275.48,77.61Zm0,50.85a25.46,25.46,0,0,1,19,23.8A25.46,25.46,0,0,1,275.48,128.46Zm0,50.84a25.47,25.47,0,0,1,19,23.81A25.46,25.46,0,0,1,275.48,179.3Zm-38.16,0a25.49,25.49,0,0,1-19,23.81A25.49,25.49,0,0,1,237.32,179.3Zm0-50.84a25.48,25.48,0,0,1-19,23.8A25.48,25.48,0,0,1,237.32,128.46Zm0-50.85a25.49,25.49,0,0,1-19,23.81A25.49,25.49,0,0,1,237.32,77.61ZM218.26,235.7h76.27v12.71H218.26ZM186.5,77.61a25.48,25.48,0,0,1,19,23.81A25.47,25.47,0,0,1,186.5,77.61Zm0,50.85a25.47,25.47,0,0,1,19,23.8A25.46,25.46,0,0,1,186.5,128.46Zm0,50.84a25.49,25.49,0,0,1,19,23.81A25.46,25.46,0,0,1,186.5,179.3Zm-38.17,0a25.46,25.46,0,0,1-19,23.81A25.49,25.49,0,0,1,148.33,179.3Zm0-50.84a25.46,25.46,0,0,1-19,23.8A25.47,25.47,0,0,1,148.33,128.46Zm0-50.85a25.47,25.47,0,0,1-19,23.81A25.48,25.48,0,0,1,148.33,77.61Zm-50.82,0a25.46,25.46,0,0,1,19,23.81A25.5,25.5,0,0,1,97.51,77.61Zm0,50.85a25.46,25.46,0,0,1,19,23.8A25.49,25.49,0,0,1,97.51,128.46Zm0,50.84a25.47,25.47,0,0,1,19,23.81A25.49,25.49,0,0,1,97.51,179.3Zm14.27,158.86,4,4a3.52,3.52,0,0,1,0,5h0a19,19,0,0,0-5.59,13.49v78.45a6.35,6.35,0,0,1-6.35,6.35h0a6.35,6.35,0,0,1-6.36-6.35V360.64a31.6,31.6,0,0,1,9.31-22.48h0A3.52,3.52,0,0,1,111.78,338.16Zm81.06-58h0a6.36,6.36,0,0,1-6.36,6.36h0a6.35,6.35,0,0,1-6.35-6.36h0a6.35,6.35,0,0,1,6.35-6.36h0A6.36,6.36,0,0,1,192.84,280.19Zm19.07,6.36h0a6.36,6.36,0,0,1-6.36-6.36h0a6.36,6.36,0,0,1,6.36-6.36h0a6.35,6.35,0,0,1,6.35,6.36h0A6.35,6.35,0,0,1,211.91,286.55Zm25.42,0h0a6.36,6.36,0,0,1-6.36-6.36h0a6.36,6.36,0,0,1,6.36-6.36h0a6.36,6.36,0,0,1,6.36,6.36h0A6.36,6.36,0,0,1,237.33,286.55ZM332.67,312a19.1,19.1,0,0,0-13.3-18.18,25.43,25.43,0,0,0-49.67,0A19.07,19.07,0,0,0,275.47,331H313.6A19.09,19.09,0,0,0,332.67,312Zm-63.56,0a6.37,6.37,0,0,1,6.36-6.36,6.35,6.35,0,0,0,6.35-6.35,12.72,12.72,0,0,1,25.43,0,6.35,6.35,0,0,0,6.35,6.35,6.36,6.36,0,0,1,0,12.72H275.47A6.37,6.37,0,0,1,269.11,312Zm-6.36,31.78h12.72v12.71H262.75Zm38.14,12.71H288.18V343.75h12.71Zm25.42,0H313.6V343.75h12.71ZM320,381.88H307.25V369.17H320ZM186.48,305.61h19.07a6.36,6.36,0,0,1,6.36,6.36h0a6.36,6.36,0,0,1-6.36,6.36H186.48a6.35,6.35,0,0,1-6.35-6.36h0A6.35,6.35,0,0,1,186.48,305.61Zm50.85,38.14H186.48a6.35,6.35,0,0,1-6.35-6.36h0a6.35,6.35,0,0,1,6.35-6.35h50.85a6.35,6.35,0,0,1,6.36,6.35h0A6.36,6.36,0,0,1,237.33,343.75Zm-38.14,38.13h38.14a6.36,6.36,0,0,1,6.36,6.36h0a6.36,6.36,0,0,1-6.36,6.36H199.19a6.35,6.35,0,0,1-6.35-6.36h0A6.35,6.35,0,0,1,199.19,381.88Z" style="fill:#0075c9"/></svg>