<svg id="Capa_1" data-name="Capa 1" xmlns="http://www.w3.org/2000/svg" viewBox="0 0 512 512"><g id="Smartphone"><path d="M322.69,56.9h-151a31.49,31.49,0,0,0-31.46,31.46V415.57A31.5,31.5,0,0,0,171.67,447h151a31.5,31.5,0,0,0,31.46-31.46V88.36A31.49,31.49,0,0,0,322.69,56.9ZM289.84,69.48l-3.77,18.88H208.29l-3.77-18.88Zm51.73,346.09a18.89,18.89,0,0,1-18.88,18.87h-151a18.9,18.9,0,0,1-18.88-18.87V88.36a18.91,18.91,0,0,1,18.88-18.88h20L197,95.89a6.3,6.3,0,0,0,6.17,5.06h88.1a6.3,6.3,0,0,0,6.17-5.06l5.28-26.41h20a18.91,18.91,0,0,1,18.88,18.88Z" style="fill:#0075c9"/><path d="M209.43,409.27H171.67a6.3,6.3,0,0,0,0,12.59h37.76a6.3,6.3,0,0,0,0-12.59Z" style="fill:#0075c9"/><path d="M234.6,409.27h-6.3a6.3,6.3,0,0,0,0,12.59h6.3a6.3,6.3,0,0,0,0-12.59Z" style="fill:#0075c9"/></g><path d="M246.78,224.36c-3.94,0-6.74,1.66-6.74,4.11V261.8c0,2.1,2.8,4.2,6.74,4.2,3.76,0,6.82-2.1,6.82-4.2V228.47C253.6,226,250.54,224.36,246.78,224.36Z" style="fill:#0075c9"/><path d="M246.78,203.8c-4,0-7.18,2.89-7.18,6.21s3.15,6.3,7.18,6.3,7.08-3,7.08-6.3S250.71,203.8,246.78,203.8Z" style="fill:#0075c9"/><path d="M246.78,167.78a68.07,68.07,0,0,0-20.62,133l15.49,22.83a6.19,6.19,0,0,0,10.25,0l15.49-22.83a68.07,68.07,0,0,0-20.61-133Zm15.06,121.69a6.14,6.14,0,0,0-3.46,2.49l-11.6,17.1L235.17,292a6.12,6.12,0,0,0-3.45-2.49,55.72,55.72,0,1,1,30.12,0Z" style="fill:#0075c9"/></svg>