<?xml version="1.0" encoding="utf-8"?>
<!-- Generator: Adobe Illustrator 26.0.1, SVG Export Plug-In . SVG Version: 6.00 Build 0)  -->
<svg version="1.1" id="Capa_1" xmlns="http://www.w3.org/2000/svg" xmlns:xlink="http://www.w3.org/1999/xlink" x="0px" y="0px"
	 viewBox="0 0 512 512" style="enable-background:new 0 0 512 512;" xml:space="preserve">
<style type="text/css">
	.st0{fill:#0075C9;}
</style>
<g>
	<g>
		<path class="st0" d="M256,297.8c-16.9,0-30.6-13.7-30.6-30.6c0-16.9,13.7-30.6,30.6-30.6c16.9,0,30.6,13.7,30.6,30.6
			C286.6,284.1,272.9,297.8,256,297.8z M256,253.4c-7.6,0-13.9,6.2-13.9,13.9c0,7.6,6.2,13.9,13.9,13.9c7.6,0,13.9-6.2,13.9-13.9
			C269.9,259.6,263.6,253.4,256,253.4z"/>
		<path class="st0" d="M352.5,297.8c-16.9,0-30.6-13.7-30.6-30.6c0-16.9,13.7-30.6,30.6-30.6c16.9,0,30.6,13.7,30.6,30.6
			C383.1,284.1,369.4,297.8,352.5,297.8z M352.5,253.4c-7.6,0-13.9,6.2-13.9,13.9c0,7.6,6.2,13.9,13.9,13.9
			c7.6,0,13.9-6.2,13.9-13.9C366.4,259.6,360.2,253.4,352.5,253.4z"/>
		<path class="st0" d="M159.5,297.8c-16.9,0-30.6-13.7-30.6-30.6c0-16.9,13.7-30.6,30.6-30.6c16.9,0,30.6,13.7,30.6,30.6
			C190,284.1,176.3,297.8,159.5,297.8z M159.5,253.4c-7.6,0-13.9,6.2-13.9,13.9c0,7.6,6.2,13.9,13.9,13.9s13.9-6.2,13.9-13.9
			C173.3,259.6,167.1,253.4,159.5,253.4z"/>
	</g>
	<path class="st0" d="M145.3,453.2c-47.7,0-86.5-38.8-86.5-86.5V145.3c0-47.7,38.8-86.5,86.5-86.5h224.8l83,83v224.8
		c0,47.7-38.8,86.5-86.5,86.5H145.3z M145.3,75.6c-38.5,0-69.8,31.3-69.8,69.8v221.3c0,38.5,31.3,69.8,69.8,69.8h221.3
		c38.5,0,69.8-31.3,69.8-69.8v-213h-69.8c-4.6,0-8.4-3.8-8.4-8.4V75.6H145.3z M375,137h49.6L375,87.4V137z"/>
</g>
</svg>
