<svg id="Capa_1" data-name="Capa 1" xmlns="http://www.w3.org/2000/svg" viewBox="0 0 512 512"><path d="M311.5,369.07a7.32,7.32,0,1,0,7.31,7.32A7.32,7.32,0,0,0,311.5,369.07Z" style="fill:#0075c9"/><path d="M391.39,392.47l-6-18a101.5,101.5,0,0,0,27.53-69.77,103.24,103.24,0,0,0-74-98.88l17.92-31a7.32,7.32,0,0,0-2.67-10l-6.33-3.66,7.31-12.66,6.33,3.66a7.3,7.3,0,0,0,10-2.68l14.63-25.32a7.32,7.32,0,0,0-2.68-10L332.77,84.93a7.32,7.32,0,0,0-10,2.67l-14.62,25.33a7.31,7.31,0,0,0,2.68,10l6.33,3.66-7.31,12.66-6.33-3.65a7.32,7.32,0,0,0-10,2.67l-54.83,95-6.33-3.65a7.32,7.32,0,0,0-10,2.67l-14.62,25.33a7.31,7.31,0,0,0,2.68,10l76,43.86a7.32,7.32,0,0,0,10-2.67L311,283.42a7.31,7.31,0,0,0-2.68-10L302,269.78l5.4-9.35c25.49-1.83,47,18.64,47,44.3a43.42,43.42,0,0,1-5.86,21.92A68.14,68.14,0,0,0,275.71,334H204.37a36.36,36.36,0,0,0-32.7,20.2l-6.54,13.08a7.31,7.31,0,0,0,6.54,10.58h77.59l-4.87,14.62h-102a22,22,0,0,0-21.93,21.93V451a7.31,7.31,0,0,0,7.31,7.31H405.62a7.32,7.32,0,0,0,7.31-7.31V414.39A22,22,0,0,0,391.39,392.47Zm-59.6-291.23,38,21.94-7.31,12.66-38-21.93Zm-2,32.64,12.67,7.31-7.32,12.66-12.66-7.31ZM287.4,295.1l-63.31-36.55,7.31-12.66,57,32.9h0l6.33,3.65Zm2-32.63-38-21.93,51.18-88.65L331,168.31l-2.07-1.19,11.62,6.71C333,186.91,295.76,251.38,289.36,262.47Zm26.43-16.53,15.58-27a88.07,88.07,0,0,1,66.94,85.79,86.87,86.87,0,0,1-18.65,54,68.48,68.48,0,0,0-18.8-24.12,57.94,57.94,0,0,0,8.2-29.9C369.06,274,345.6,248.61,315.79,245.94Zm2.1,88a53.55,53.55,0,0,1,50.79,36.61l7.3,21.87H259.8l7.29-21.87A53.58,53.58,0,0,1,317.89,334ZM183.5,363.22c.5-.59,5.16-14.7,20.87-14.7h57.57a69,69,0,0,0-7.73,14.7Zm214.81,80.42H135.12V414.39a7.32,7.32,0,0,1,7.31-7.31H391a7.32,7.32,0,0,1,7.32,7.31Z" style="fill:#0075c9"/><path d="M331.88,168.83l1.21.7Z" style="fill:#0075c9"/><path d="M331.83,168.8l.05,0Z" style="fill:#0075c9"/><path d="M331,168.31l.07,0Z" style="fill:#0075c9"/><path d="M331.06,168.35l.77.45Z" style="fill:#0075c9"/><path d="M333.09,169.53l.2.11Z" style="fill:#0075c9"/><path d="M336.12,171.28l.07,0Z" style="fill:#0075c9"/><path d="M335.94,171.17l.18.11Z" style="fill:#0075c9"/><path d="M336.19,171.31Z" style="fill:#0075c9"/><path d="M334.92,170.58l.16.09Z" style="fill:#0075c9"/><path d="M335.08,170.67l.86.5Z" style="fill:#0075c9"/><path d="M334.68,170.44l.24.14Z" style="fill:#0075c9"/><path d="M333.29,169.64l1.39.8Z" style="fill:#0075c9"/><path d="M370,369.07H340.75a7.32,7.32,0,0,0,0,14.63H370a7.32,7.32,0,0,0,0-14.63Z" style="fill:#0075c9"/><path d="M139.44,241.31c-19.28-17.45-39.22-35.5-39.22-55.59a31.25,31.25,0,0,1,1.28-8.47h56.64a6.37,6.37,0,1,0,0-12.73H107.21c5.68-9.07,14.06-17.51,20.88-24a6.37,6.37,0,1,0-8.75-9.25C102.8,147,87.49,164.39,87.49,185.72c0,25.22,21.77,45.42,41.45,63.25-16.14,15-31.56,31.25-31.56,50.5a6.37,6.37,0,0,0,12.73,0c0-14.35,13.82-28.55,28.27-41.9A204.29,204.29,0,0,1,154,273.32H133.42a6.37,6.37,0,1,0,0,12.73h29.45c2.52,4.86,3.75,9.26,3.75,13.42a6.37,6.37,0,0,0,12.73,0C179.35,277.44,160,259.89,139.44,241.31Z" style="fill:#0075c9"/><path d="M137.26,130.1l1-1h0l-1,1c19.28,17.45,39.22,35.5,39.22,55.59a31.31,31.31,0,0,1-1.28,8.47H118.58a6.37,6.37,0,0,0,0,12.73h50.94c-5.68,9.07-14.06,17.5-20.88,24a6.36,6.36,0,0,0-.25,9,6.36,6.36,0,0,0,9,.25c16.55-15.65,31.86-33.08,31.86-54.41,0-25.23-21.78-45.43-41.45-63.25,16.14-15,31.56-31.25,31.56-50.5a6.37,6.37,0,0,0-12.73,0c0,4.18-1.23,8.57-3.76,13.42H133.42a6.37,6.37,0,1,0,0,12.73h20.52a205.94,205.94,0,0,1-15.59,15.75c-14.43-13.31-28.24-27.48-28.24-41.9a6.37,6.37,0,0,0-12.73,0C97.38,94,116.75,111.53,137.26,130.1Z" style="fill:#0075c9"/></svg>