<svg id="Capa_1" data-name="Capa 1" xmlns="http://www.w3.org/2000/svg" viewBox="0 0 512 512"><path d="M398.66,160.3h-4.21a110.89,110.89,0,0,0-10-24.15l3-3a17,17,0,0,0,0-24.09L368.5,90.15a17,17,0,0,0-24.07,0l-3,3a110.66,110.66,0,0,0-24.12-10V78.88a17,17,0,0,0-17-17H273.51a17,17,0,0,0-17,17V83.1a111.27,111.27,0,0,0-24.12,10l-3-3a17,17,0,0,0-24.09,0l-19,19a17.07,17.07,0,0,0,0,24.06l3,3a110.93,110.93,0,0,0-10,24.15h-4.2a17,17,0,0,0-17,17v26.8a17,17,0,0,0,17,17h4.2a111.47,111.47,0,0,0,10,24.14l-3,3a17.06,17.06,0,0,0,0,24.08l19,19a17.06,17.06,0,0,0,24.08,0l3-3a110.7,110.7,0,0,0,24.11,10v4.22a17,17,0,0,0,17,17H300.3a17,17,0,0,0,17-17v-4.22a109.72,109.72,0,0,0,24.12-10l3,3a17,17,0,0,0,24.07,0l18.92-18.95a17,17,0,0,0,0-24.09l-3-3a111.69,111.69,0,0,0,10-24.14h4.21a17,17,0,0,0,17-17v-26.8a17,17,0,0,0-17-17Zm2.11,43.82a2.16,2.16,0,0,1-2.11,2.14h-10a7.46,7.46,0,0,0-7.27,5.81,96.29,96.29,0,0,1-12.6,30.42,7.46,7.46,0,0,0,1,9.25l7.09,7.09a2.15,2.15,0,0,1,0,3l-18.93,19a2.14,2.14,0,0,1-3,0l-7.09-7.1a7.46,7.46,0,0,0-9.26-1,95.59,95.59,0,0,1-30.38,12.6,7.46,7.46,0,0,0-5.82,7.27v10a2.14,2.14,0,0,1-2.11,2.11H273.51a2.15,2.15,0,0,1-2.13-2.11v-10a7.46,7.46,0,0,0-5.82-7.27,95.92,95.92,0,0,1-30.39-12.61,7.46,7.46,0,0,0-9.26,1l-7.06,7.09a2.14,2.14,0,0,1-3,0l-19-19a2.14,2.14,0,0,1,0-3l7.09-7.08a7.45,7.45,0,0,0,1-9.25,96,96,0,0,1-12.6-30.41,7.47,7.47,0,0,0-7.28-5.83h-10a2.16,2.16,0,0,1-2.11-2.14v-26.8a2.15,2.15,0,0,1,2.11-2.12h10a7.46,7.46,0,0,0,7.28-5.82A95.73,95.73,0,0,1,205,139a7.44,7.44,0,0,0-1-9.25l-7.09-7.09a2.17,2.17,0,0,1,0-3l19-19a2.11,2.11,0,0,1,3,0l7.07,7.08a7.46,7.46,0,0,0,9.25,1,96.63,96.63,0,0,1,30.4-12.61,7.46,7.46,0,0,0,5.81-7.27v-10a2.15,2.15,0,0,1,2.13-2.11H300.3a2.14,2.14,0,0,1,2.11,2.11v10a7.46,7.46,0,0,0,5.81,7.27,96.07,96.07,0,0,1,30.39,12.6,7.44,7.44,0,0,0,9.25-1l7.11-7.1a2.12,2.12,0,0,1,3,0l18.93,19a2.13,2.13,0,0,1,.62,1.51,2,2,0,0,1-.63,1.5l-7.07,7.1a7.44,7.44,0,0,0-1,9.24,96,96,0,0,1,12.6,30.41,7.46,7.46,0,0,0,7.27,5.82h10a2.15,2.15,0,0,1,2.11,2.12v26.8Z" style="fill:#0075c9"/><path d="M263.75,115.29a7.45,7.45,0,0,0,4.37,14.25A64,64,0,0,1,335.2,232.62a50.92,50.92,0,0,0-18.9-26.12,35.69,35.69,0,1,0-58.79,0,51,51,0,0,0-18.91,26.14,64,64,0,0,1-12.84-60.73,7.45,7.45,0,1,0-14.25-4.35,78.83,78.83,0,1,0,52.24-52.27Zm23.14,50.19a20.8,20.8,0,1,1-20.77,20.81A20.82,20.82,0,0,1,286.89,165.48Zm0,89.23A63.48,63.48,0,0,1,251.4,244a35.89,35.89,0,0,1,17.29-27,35.56,35.56,0,0,0,36.43,0,35.87,35.87,0,0,1,17.29,27,63.49,63.49,0,0,1-35.51,10.75Z" style="fill:#0075c9"/><path d="M236.43,147.65a7.39,7.39,0,0,0,5.26-2.18l0,0a7.45,7.45,0,1,0-5.28,2.2Z" style="fill:#0075c9"/><path d="M366.71,321.21l-57.14,29.38a26.82,26.82,0,0,0-19.24-8.13H251.07a12.29,12.29,0,0,1-2.68-.16,21.68,21.68,0,0,1-2.09-1.85l-.33-.31c-31.82-30-58.73-28.11-89.34-16-4.91,1.93-5,1.93-9.92,2.15H138a19.4,19.4,0,0,0-18.34-13.16H90.78A19.41,19.41,0,0,0,71.4,332.51v75.81a19.41,19.41,0,0,0,19.38,19.4h28.88A19.41,19.41,0,0,0,138,414.57h16.08a20.87,20.87,0,0,1,5.34,1.09l74.7,20c3.27.89,6.28,1.76,9.19,2.61,9.61,2.79,17.68,5.13,26.09,5.13,9.51,0,19.46-3,32.54-11.73l.19-.13,92.09-65.61c12-8.55,15.49-24,8.12-35.87s-22.56-15.57-35.63-8.85ZM124.13,408.32a4.55,4.55,0,0,1-4.47,4.5H90.78a4.55,4.55,0,0,1-4.47-4.5V332.51A4.49,4.49,0,0,1,90.78,328h28.88a4.49,4.49,0,0,1,4.47,4.49Zm261.45-54.53-92,65.55c-18.82,12.54-26.82,10.22-46.1,4.62-3-.87-6.05-1.76-9.48-2.69l-74.72-20-2.19-.61a20,20,0,0,0-7-1H139V341.18h7.91l.43,0c6.06-.27,7.76-.44,14.73-3.18,26.72-10.55,47.34-11.81,73.65,13l.32.31c4.48,4.22,7.25,6.08,15,6.08h39.26a12,12,0,0,1,0,24.06H226.72a7.46,7.46,0,1,0,0,14.91h63.61a27,27,0,0,0,26.92-26.93,27.42,27.42,0,0,0-.61-5.7l56.89-29.24c5.29-2.73,12.53-2.43,16.14,3.42,3.18,5.14,1.42,12-4.09,15.9Z" style="fill:#0075c9"/></svg>