<?xml version="1.0" encoding="utf-8"?>
<!-- Generator: Adobe Illustrator 25.0.0, SVG Export Plug-In . SVG Version: 6.00 Build 0)  -->
<svg version="1.1" id="Layer_1" xmlns="http://www.w3.org/2000/svg" xmlns:xlink="http://www.w3.org/1999/xlink" x="0px" y="0px"
	 viewBox="0 0 252 85" style="enable-background:new 0 0 252 85;" xml:space="preserve">
<style type="text/css">
	.st0{fill:#00A0DF;}
	.st1{fill:#0075C9;}
	.st2{fill:#243746;}
	.st3{fill:#4A4F55;}
	.st4{fill:#392E2E;}
</style>
<g id="Group_192" transform="translate(-244.986 -293.439)">
	<path id="Path_1" class="st0" d="M311.4,314.8l-6.5,14.5h29.8v-14.5H311.4z"/>
	<path id="Path_2" class="st0" d="M320.7,294l-6.5,14.5h25.6V294H320.7z"/>
	<path id="Path_3" class="st0" d="M339.6,354v-18.2h-37.4l-4.3,9.3C323.4,340.7,334.8,348.2,339.6,354"/>
	<path id="Path_4" class="st1" d="M245.3,299.2v40.5l20.7-46h-15.2C247.8,293.7,245.3,296.2,245.3,299.2L245.3,299.2"/>
	<path id="Path_5" class="st1" d="M290.6,345.4l23.2-51.6h-18.3l-24,53.4C277.9,347.1,284.3,346.5,290.6,345.4"/>
	<path id="Path_6" class="st1" d="M266,347l24-53.3h-18.3l-22.7,50.4C254.6,345.8,260.3,346.8,266,347"/>
	<path id="Path_7" class="st2" d="M306.5,349.7c-20.2,2.7-41.9,7.8-61.2-1.5c14.9,16.2,38.1,14.8,57.8,11.2
		c28.2-2.6,36.4,18.8,36.4,18.8S342.9,345.9,306.5,349.7"/>
	<path id="Path_8" class="st3" d="M362.5,341.1l4.6-15.7l4.7,15.7h3.1l5.9-20.6h-3.5l-4.2,15.2l-4.5-15.2h-3.2l-4.5,15.2l-4.2-15.2
		h-3.5l5.9,20.6L362.5,341.1z"/>
	<rect id="Rectangle_1" x="384.7" y="320.5" class="st4" width="3.3" height="20.6"/>
	<path id="Path_9" class="st3" d="M397.3,330.1c0-1.8,0-3.6,0-4.6l11.2,15.4l0.1,0.1h3.1v-20.6h-3.2v10.9c0,1.8,0,3.5,0,4.4
		l-11-15.3H394v20.6h3.3L397.3,330.1z"/>
	<path id="Path_10" class="st3" d="M424.1,338.1h-3v-14.8h3c4.5,0,7.5,3,7.5,7.4C431.6,335.2,428.6,338.1,424.1,338.1 M435,330.8
		c0-6.1-4.5-10.3-10.9-10.3h-6.3v20.6h6.3C430.5,341.1,435,336.8,435,330.8"/>
	<path id="Path_11" class="st3" d="M445.3,338.5c-2-0.1-3.8-1.2-4.9-2.8l-0.2-0.2l-2,2.3l0.1,0.2c1.6,2.1,4,3.4,6.7,3.5
		c3.6,0,7.3-2.1,7.3-6.2c0-2.3-1.5-4.4-3.6-5.2l-3.7-1.5c-1.2-0.5-2.4-1.1-2.4-2.8c0-1.6,1.2-2.6,3.3-2.6c1.7,0.1,3.2,0.8,4.3,2.1
		l0.2,0.2l1.8-2.3l-0.1-0.1c-1.5-1.7-3.7-2.7-5.9-2.7c-3.2,0-6.7,1.8-6.7,5.6c0,2.3,1.3,4.3,3.5,5.1c0.8,0.4,2.1,0.9,3.2,1.3l0.1,0
		c1.1,0.4,3,1.2,3,3.1C449,337.6,447.2,338.5,445.3,338.5"/>
	<path id="Path_12" class="st3" d="M459.9,330.7c0-4.5,3-7.6,7.3-7.6s7.3,3.1,7.3,7.6s-3,7.6-7.3,7.6S459.9,335.2,459.9,330.7
		 M467.1,341.4c5.9,0,10.6-4.8,10.6-10.6s-4.8-10.6-10.6-10.6c-5.9,0-10.6,4.8-10.6,10.6c-0.2,5.7,4.2,10.4,9.9,10.6
		C466.7,341.4,466.9,341.4,467.1,341.4"/>
	<path id="Path_13" class="st3" d="M485.6,323.2h1.8c1.1-0.1,2.3,0.1,3.2,0.7l0,0c0.8,0.6,1.3,1.5,1.2,2.5c0.1,1-0.4,1.9-1.2,2.5
		c-1,0.6-2.1,0.8-3.2,0.7h-1.8V323.2z M485.6,332.4h1.8l5.2,8.7h4l-5.8-9c2.7-0.6,4.5-2.9,4.4-5.7c0-4.3-3.6-5.9-7-5.9h-5.9v20.6
		h3.3V332.4z"/>
	<path id="Path_14" class="st3" d="M367.9,366.3h-9.2v-6.5h8.4v-2.9h-8.5v-5.5h9v-2.8h-12.2v20.6h12.5L367.9,366.3z"/>
	<path id="Path_15" class="st3" d="M378.8,366.6c-2-0.1-3.8-1.2-4.9-2.8l-0.2-0.2l-2,2.3l0.1,0.2c1.6,2.1,4,3.4,6.7,3.5
		c3.6,0,7.3-2.1,7.3-6.2c0-2.3-1.5-4.4-3.6-5.2l-3.7-1.5c-1.2-0.5-2.4-1.1-2.4-2.8c0-1.6,1.2-2.6,3.3-2.6c1.7,0.1,3.2,0.8,4.3,2.1
		l0.2,0.2l1.8-2.3l-0.1-0.2c-1.5-1.7-3.7-2.7-5.9-2.7c-3.2,0-6.7,1.8-6.7,5.6c0,2.3,1.3,4.3,3.5,5.1c0.8,0.4,2.1,0.9,3.2,1.3l0.1,0
		c1.1,0.4,3,1.2,3,3.1C382.5,365.7,380.6,366.6,378.8,366.6"/>
	<path id="Path_16" class="st3" d="M396.1,366.6c-2-0.1-3.8-1.2-4.9-2.8l-0.2-0.2l-2,2.3l0.1,0.2c1.6,2.1,4,3.4,6.7,3.5
		c3.6,0,7.3-2.1,7.3-6.2c0-2.3-1.5-4.4-3.6-5.2l-3.7-1.5c-1.2-0.5-2.4-1.1-2.4-2.8c0-1.6,1.2-2.6,3.3-2.6c1.7,0.1,3.2,0.8,4.3,2.1
		l0.2,0.2l1.8-2.3l-0.1-0.1c-1.5-1.7-3.7-2.7-5.9-2.7c-3.2,0-6.7,1.8-6.7,5.6c0,2.3,1.3,4.3,3.5,5.1c0.8,0.4,2.1,0.9,3.2,1.3l0.1,0
		c1,0.4,3,1.2,3,3.1C399.8,365.7,397.9,366.6,396.1,366.6"/>
	<path id="Path_17" class="st3" d="M420.2,351.4v-2.8H408v20.6h12.5v-2.9h-9.2v-6.5h8.5v-2.9h-8.5v-5.5L420.2,351.4z"/>
	<path id="Path_18" class="st3" d="M427.4,348.6h-3.9l6.3,10l-6.8,10.6h3.9l4.9-8.3l4.9,8.2l0.1,0.1h4l-6.8-10.6l6.3-10h-3.9
		l-4.6,7.6L427.4,348.6z"/>
	<rect id="Rectangle_2" x="355" y="299" class="st3" width="1.6" height="13.3"/>
	<path id="Path_19" class="st3" d="M362,299h2l7.7,11.1h0V299h1.6v13.3h-2l-7.7-11.1h0v11.1H362V299z"/>
	<path id="Path_20" class="st3" d="M377,299h1.8l4.1,10.9h0l4.2-10.9h1.7l-5.2,13.3h-1.5L377,299z"/>
	<path id="Path_21" class="st3" d="M392.4,299h8.4v1.5H394v4.2h6.3v1.5H394v4.7h7.1v1.5h-8.7L392.4,299z"/>
	<path id="Path_22" class="st3" d="M412,301.3c-0.2-0.4-0.6-0.7-1.1-0.9c-0.4-0.2-0.9-0.3-1.4-0.3c-0.3,0-0.7,0-1,0.1
		c-0.3,0.1-0.6,0.2-0.9,0.4c-0.3,0.2-0.5,0.4-0.6,0.7c-0.2,0.3-0.3,0.7-0.2,1c0,0.3,0,0.5,0.1,0.8c0.1,0.2,0.3,0.5,0.5,0.6
		c0.3,0.2,0.6,0.4,0.9,0.5c0.4,0.2,0.9,0.4,1.3,0.5c0.5,0.2,1,0.3,1.5,0.5c0.5,0.2,0.9,0.4,1.3,0.7c0.4,0.3,0.7,0.7,0.9,1.1
		c0.5,1.1,0.4,2.3-0.1,3.4c-0.3,0.5-0.6,0.9-1,1.2c-0.4,0.3-1,0.6-1.5,0.7c-0.6,0.2-1.2,0.2-1.7,0.2c-0.4,0-0.8,0-1.2-0.1
		c-0.4-0.1-0.8-0.2-1.1-0.3c-0.4-0.1-0.7-0.3-1-0.6c-0.3-0.2-0.6-0.5-0.8-0.9l1.4-1.1c0.3,0.5,0.7,0.9,1.2,1.1
		c0.5,0.2,1.1,0.4,1.6,0.4c0.3,0,0.7-0.1,1-0.1c0.3-0.1,0.6-0.2,0.9-0.4c0.3-0.2,0.5-0.4,0.7-0.7c0.2-0.3,0.3-0.6,0.3-1
		c0-0.3-0.1-0.7-0.2-1c-0.2-0.3-0.4-0.5-0.6-0.7c-0.3-0.2-0.7-0.4-1.1-0.5l-1.5-0.5c-0.5-0.1-0.9-0.3-1.3-0.5
		c-0.4-0.2-0.7-0.4-1-0.7c-0.3-0.3-0.5-0.6-0.7-1c-0.2-0.5-0.3-0.9-0.3-1.4c0-1.1,0.5-2.2,1.4-2.9c0.4-0.3,0.9-0.6,1.4-0.7
		c1.2-0.4,2.5-0.3,3.8,0.1c0.7,0.3,1.2,0.7,1.7,1.2L412,301.3z"/>
	<path id="Path_23" class="st3" d="M427.1,300.5h-4.4v11.8h-1.6v-11.8h-4.4V299h10.4L427.1,300.5z"/>
</g>
</svg>
