<svg xmlns="http://www.w3.org/2000/svg" width="200" height="118" viewBox="0 0 200 118">
  <g id="YQG-Logo" transform="translate(-320.923 -240.314)">
    <path id="Path_40-3_1_" d="M320.923,261.606h17.825l10.459,17.6,10.485-17.6h17.729l-20.189,30.311v21.845H341.149V291.917Z" transform="translate(0 0.422)" fill="#bf0d3e"/>
    <path id="Path_41-3_1_" d="M494.681,294.633V284.14h23.979v21.5a49.066,49.066,0,0,1-12.179,6.417,41.193,41.193,0,0,1-12.554,1.7q-8.936,0-14.577-3.06a20.912,20.912,0,0,1-8.733-9.116,30.086,30.086,0,0,1-3.1-13.9,29.1,29.1,0,0,1,3.392-14.364,22.013,22.013,0,0,1,9.934-9.272q5.1-2.448,13.736-2.448,8.327,0,12.453,1.513a16.167,16.167,0,0,1,6.85,4.691,20.889,20.889,0,0,1,4.093,8.08L503,278.568a8.139,8.139,0,0,0-3.136-4.369,9.758,9.758,0,0,0-5.635-1.516,10.14,10.14,0,0,0-8.136,3.563q-3.034,3.561-3.032,11.267,0,8.189,3.067,11.7a10.744,10.744,0,0,0,8.546,3.508,16.163,16.163,0,0,0,4.969-.757,26.871,26.871,0,0,0,5.412-2.579v-4.748H494.681Z" transform="translate(2.263 0.422)" fill="#bf0d3e"/>
    <path id="Union_1-5_1_" d="M401.505,328.117a45.492,45.492,0,1,1,55.368-16.534c-.362.544-.74,1.079-1.128,1.6l18.2,18.284h-17.7l-9.258-9.3q-1.167.909-2.388,1.734a45.35,45.35,0,0,1-43.094,4.208Zm-16.393-42.05a34.033,34.033,0,0,0,56.014,26.177l4.129-4.146a34.325,34.325,0,0,0-4.127-48.22,34.085,34.085,0,0,0-56.016,26.191Z" transform="translate(0.814 0)" fill="#033387"/>
    <path id="Path_7-4_1_" d="M443.093,281.3a1.158,1.158,0,0,0,0-2.315h-4.367v-3.151h4.367a1.158,1.158,0,0,0,0-2.316h-4.367v-1.894a1.151,1.151,0,0,0-.337-.816l-3.333-3.353a1.142,1.142,0,0,0-.812-.34h-1.888v-4.386a1.153,1.153,0,1,0-2.306,0v4.39h-3.14v-4.386a1.153,1.153,0,1,0-2.306,0v4.39h-3.136v-4.149a6.965,6.965,0,0,0-13.673-1.9,10.427,10.427,0,0,0-9.327,10.389,10.548,10.548,0,0,0,.786,3.992,11.533,11.533,0,0,0,0,20.321,10.432,10.432,0,0,0,8.541,14.38,6.964,6.964,0,0,0,13.672-1.9V304.1H424.6v4.385a1.153,1.153,0,1,0,2.306,0V304.1h3.139v4.385a1.153,1.153,0,1,0,2.306,0V304.1h1.886a1.147,1.147,0,0,0,.812-.339l3.334-3.347a1.151,1.151,0,0,0,.337-.816v-1.9h4.367a1.158,1.158,0,0,0,0-2.315h-4.367v-3.149h4.367a1.158,1.158,0,0,0,0-2.316h-4.367v-3.151h4.367a1.158,1.158,0,0,0,0-2.315h-4.367V281.3h4.37ZM414.507,312.93a4.681,4.681,0,0,1-4.3-2.886,10.219,10.219,0,0,0,5.495-2.92,1.16,1.16,0,0,0-.006-1.636,1.148,1.148,0,0,0-1.629.005l-.012.012a7.9,7.9,0,0,1-2.363,1.664,7.78,7.78,0,0,1-2.958.714,8.134,8.134,0,0,1-6.921-12.1,1.161,1.161,0,0,0-.44-1.577,1.1,1.1,0,0,0-.136-.064,9.208,9.208,0,0,1,0-17.065,1.16,1.16,0,0,0,.642-1.505c-.019-.047-.041-.092-.064-.137a8.149,8.149,0,0,1,3.107-11.067,8.054,8.054,0,0,1,3.813-1.036,7.879,7.879,0,0,1,5.316,2.379,1.155,1.155,0,1,0,1.691-1.574c-.013-.014-.025-.028-.04-.041a10.129,10.129,0,0,0-3.046-2.155,10.233,10.233,0,0,0-2.449-.768,4.658,4.658,0,0,1,8.965,1.795v14.192h-3.589l-3.058-3.071a4.1,4.1,0,1,0-5.556,1.624,4.078,4.078,0,0,0,3.924.008l3.4,3.411a1.226,1.226,0,0,0,.813.339h4.062v4.973h-7.217a4.112,4.112,0,1,0,0,2.315h7.223v4.973h-4.144a1.149,1.149,0,0,0-.733.336l-3.4,3.422a4.081,4.081,0,0,0-5.548,1.638,4.088,4.088,0,1,0,7.181,0l3.058-3.074h3.589v14.2a4.676,4.676,0,0,1-4.661,4.68h0Zm-3.8-40.807a1.789,1.789,0,1,1-.523-1.266A1.787,1.787,0,0,1,410.711,272.123Zm-.914,13.485a1.783,1.783,0,1,1-1.781-1.793h0a1.792,1.792,0,0,1,1.786,1.793Zm.914,13.489a1.786,1.786,0,1,1-3.048-1.266h0a1.781,1.781,0,0,1,2.523,0h0A1.78,1.78,0,0,1,410.711,299.1Zm25.71.016-2.656,2.669H421.47v-3.43h10.384a1.156,1.156,0,0,0,1.153-1.159h0V290.8a1.153,1.153,0,1,0-2.305,0v5.235H421.47V275.181H430.7V280.4a1.153,1.153,0,1,0,2.306,0v-6.379a1.155,1.155,0,0,0-1.153-1.158H421.47v-3.432h12.294l2.657,2.672Z" transform="translate(1.115 0.311)" fill="#033387"/>
    <path id="Path_8-4_1_" d="M431.283,283.9a1.155,1.155,0,0,0-1.153,1.158h0a1.153,1.153,0,1,0,1.152-1.162v0Z" transform="translate(1.686 0.864)" fill="#041e42"/>
    <path id="Path_56" data-name="Path 56" d="M3.818-13.031H5.811V.062H3.818ZM-.2-14.2H9.824v1.9H-.2Zm11.973,0H13.77V.062H11.777Zm.967,12.358H20.9v1.9H12.744Zm0-6.13h7.08v1.9h-7.08Zm0-6.228H20.9v1.9H12.744ZM28.379.209a5.022,5.022,0,0,1-2.593-.657,4.455,4.455,0,0,1-1.733-1.863,6.071,6.071,0,0,1-.615-2.8V-9.02a6.071,6.071,0,0,1,.615-2.8,4.487,4.487,0,0,1,1.733-1.868,4.993,4.993,0,0,1,2.593-.662,4.858,4.858,0,0,1,2.246.525,4.742,4.742,0,0,1,1.714,1.486,5.588,5.588,0,0,1,.933,2.226H31.23a3.185,3.185,0,0,0-.62-1.192,3.039,3.039,0,0,0-1.021-.809,2.742,2.742,0,0,0-1.211-.284,2.75,2.75,0,0,0-1.523.422A2.8,2.8,0,0,0,25.84-10.79a4.081,4.081,0,0,0-.361,1.77v3.913a4.09,4.09,0,0,0,.361,1.765,2.758,2.758,0,0,0,1.016,1.182,2.774,2.774,0,0,0,1.523.417,2.9,2.9,0,0,0,1.216-.265,2.862,2.862,0,0,0,1.016-.785,3.115,3.115,0,0,0,.62-1.236h2.041A5.549,5.549,0,0,1,32.334-1.8,4.784,4.784,0,0,1,30.615-.316,4.837,4.837,0,0,1,28.379.209ZM43.975-14.2h1.992V.062H43.975Zm-8.066,0H37.9V.062H35.908Zm1.24,6.287h7.881v1.9H37.148ZM49.482-14.2h1.807L58.232-3.175,58-2.92V-14.2h1.973V.052H58.145L51.221-10.805l.234-.255V.052H49.482ZM68.184.209a5.151,5.151,0,0,1-2.617-.652,4.447,4.447,0,0,1-1.753-1.844,5.9,5.9,0,0,1-.62-2.761V-9.089a5.9,5.9,0,0,1,.62-2.761,4.447,4.447,0,0,1,1.753-1.844,5.151,5.151,0,0,1,2.617-.652,5.151,5.151,0,0,1,2.617.652,4.447,4.447,0,0,1,1.753,1.844,5.9,5.9,0,0,1,.62,2.761v4.041a5.9,5.9,0,0,1-.62,2.761A4.447,4.447,0,0,1,70.8-.443,5.151,5.151,0,0,1,68.184.209Zm0-1.971a2.974,2.974,0,0,0,1.548-.4,2.668,2.668,0,0,0,1.035-1.128,3.728,3.728,0,0,0,.366-1.692V-9.157a3.728,3.728,0,0,0-.366-1.692,2.668,2.668,0,0,0-1.035-1.128,2.974,2.974,0,0,0-1.548-.4,2.974,2.974,0,0,0-1.548.4A2.668,2.668,0,0,0,65.6-10.849a3.728,3.728,0,0,0-.366,1.692v4.178A3.728,3.728,0,0,0,65.6-3.287a2.668,2.668,0,0,0,1.035,1.128A2.974,2.974,0,0,0,68.184-1.762ZM76.2-14.2h1.992V.062H76.2Zm1,12.358h8.125v1.9H77.2ZM91.973.209a5.151,5.151,0,0,1-2.617-.652A4.447,4.447,0,0,1,87.6-2.287a5.9,5.9,0,0,1-.62-2.761V-9.089a5.9,5.9,0,0,1,.62-2.761,4.447,4.447,0,0,1,1.753-1.844,5.151,5.151,0,0,1,2.617-.652,5.151,5.151,0,0,1,2.617.652,4.447,4.447,0,0,1,1.753,1.844,5.9,5.9,0,0,1,.62,2.761v4.041a5.9,5.9,0,0,1-.62,2.761A4.447,4.447,0,0,1,94.59-.443,5.151,5.151,0,0,1,91.973.209Zm0-1.971a2.974,2.974,0,0,0,1.548-.4,2.668,2.668,0,0,0,1.035-1.128,3.728,3.728,0,0,0,.366-1.692V-9.157a3.728,3.728,0,0,0-.366-1.692,2.668,2.668,0,0,0-1.035-1.128,2.974,2.974,0,0,0-1.548-.4,2.974,2.974,0,0,0-1.548.4,2.668,2.668,0,0,0-1.035,1.128,3.728,3.728,0,0,0-.366,1.692v4.178a3.728,3.728,0,0,0,.366,1.692,2.668,2.668,0,0,0,1.035,1.128A2.974,2.974,0,0,0,91.973-1.762ZM109.5-7.618v2.491a6.1,6.1,0,0,1-.615,2.8,4.461,4.461,0,0,1-1.743,1.873,5.065,5.065,0,0,1-2.612.662,5.414,5.414,0,0,1-2.642-.623,4.362,4.362,0,0,1-1.763-1.761A5.392,5.392,0,0,1,99.5-4.812V-9.02a6.071,6.071,0,0,1,.615-2.8,4.468,4.468,0,0,1,1.743-1.868,5.065,5.065,0,0,1,2.612-.662,4.888,4.888,0,0,1,2.251.525,4.772,4.772,0,0,1,1.724,1.486,5.548,5.548,0,0,1,.938,2.226h-2.158a3.078,3.078,0,0,0-.6-1.231,2.84,2.84,0,0,0-.986-.785,2.7,2.7,0,0,0-1.172-.27,2.816,2.816,0,0,0-1.543.422A2.773,2.773,0,0,0,101.9-10.79a4.081,4.081,0,0,0-.361,1.77v4.208a3.361,3.361,0,0,0,.371,1.613,2.641,2.641,0,0,0,1.05,1.074,3.138,3.138,0,0,0,1.567.383,2.948,2.948,0,0,0,1.543-.4A2.62,2.62,0,0,0,107.1-3.292a4.123,4.123,0,0,0,.361-1.795v-.618H104.58V-7.618Zm5.02,7.68h-1.992V-14.2h1.992ZM118.037-14.2h1.992V.062h-1.992ZM119-1.841h8.154v1.9H119Zm0-6.13h7.08v1.9H119Zm0-6.228h8.154v1.9H119ZM134.258.209a9.283,9.283,0,0,1-1.943-.2A7.318,7.318,0,0,1,130.6-.576a7.247,7.247,0,0,1-1.489-.981h0l1.24-1.53h0a5.6,5.6,0,0,0,1.787,1.059,6.188,6.188,0,0,0,2.119.353,4.247,4.247,0,0,0,2.393-.574,1.846,1.846,0,0,0,.85-1.623v-.01a1.721,1.721,0,0,0-.386-1.182,2.3,2.3,0,0,0-1-.647,11.036,11.036,0,0,0-1.577-.387.2.2,0,0,0-.063-.01.2.2,0,0,1-.063-.01l-.146-.029a15.165,15.165,0,0,1-2.319-.554,3.267,3.267,0,0,1-1.528-1.128,3.732,3.732,0,0,1-.635-2.329v-.01a4.152,4.152,0,0,1,.591-2.261,3.715,3.715,0,0,1,1.724-1.427,6.837,6.837,0,0,1,2.725-.49,6.775,6.775,0,0,1,1.5.167,7.426,7.426,0,0,1,1.455.5,8.367,8.367,0,0,1,1.411.829h0l-1.133,1.589h0a6.615,6.615,0,0,0-1.616-.9,4.614,4.614,0,0,0-1.616-.3,3.8,3.8,0,0,0-2.261.584,1.92,1.92,0,0,0-.806,1.653v.01a1.578,1.578,0,0,0,.415,1.157,2.51,2.51,0,0,0,1.035.623,15.561,15.561,0,0,0,1.724.417A.725.725,0,0,0,135-8a.726.726,0,0,1,.073.015l.107.02.107.02a11.749,11.749,0,0,1,2.153.628,3.363,3.363,0,0,1,1.445,1.172,3.727,3.727,0,0,1,.581,2.212v.02a3.942,3.942,0,0,1-.615,2.231,3.836,3.836,0,0,1-1.782,1.412A7.327,7.327,0,0,1,134.258.209Zm15.41-.147h-1.992V-14.2h1.992ZM153.184-14.2h1.807l6.943,11.024-.234.255V-14.2h1.973V.052h-1.826l-6.924-10.857.234-.255V.052h-1.973ZM171.836.209a5.022,5.022,0,0,1-2.593-.657,4.455,4.455,0,0,1-1.733-1.863,6.071,6.071,0,0,1-.615-2.8V-9.02a6.071,6.071,0,0,1,.615-2.8,4.487,4.487,0,0,1,1.733-1.868,4.993,4.993,0,0,1,2.593-.662,4.858,4.858,0,0,1,2.246.525,4.742,4.742,0,0,1,1.714,1.486,5.588,5.588,0,0,1,.933,2.226h-2.041a3.185,3.185,0,0,0-.62-1.192,3.039,3.039,0,0,0-1.021-.809,2.742,2.742,0,0,0-1.211-.284,2.75,2.75,0,0,0-1.523.422A2.8,2.8,0,0,0,169.3-10.79a4.081,4.081,0,0,0-.361,1.77v3.913a4.089,4.089,0,0,0,.361,1.765,2.758,2.758,0,0,0,1.016,1.182,2.774,2.774,0,0,0,1.523.417,2.9,2.9,0,0,0,1.216-.265,2.862,2.862,0,0,0,1.016-.785,3.115,3.115,0,0,0,.62-1.236h2.041a5.549,5.549,0,0,1-.937,2.226,4.784,4.784,0,0,1-1.719,1.486A4.837,4.837,0,0,1,171.836.209Zm6.6-2.246h2.09v2.1h-2.09Z" transform="translate(332.092 358.105)" fill="#033387"/>
    <line id="Line_3-3_1_" x2="199.024" transform="translate(321.431 336.729)" fill="none" stroke="#033387" stroke-miterlimit="10" stroke-width="1"/>
  </g>
</svg>
